# xmcd
#
# Track frame offsets:
#	150
#	21589
#	42460
#	61553
#	85354
#	102887
#	124812
#	146572
#	166247
#	188034
#	206541
#	224734
#	239716
#	264851
#	290587
#	310626
#	330318
#	349504
#
# Disc length: 4783 seconds
#
# Revision: 2
# Processed by: cddbd v1.4PL0 Copyright (c) Steve Scherf et al.
# Submitted via: EZCDDA 4.3.2
#
DISCID=0b12ad12
DTITLE=Boris Moiseev
DYEAR=1900
DGENRE=
TTITLE0=Golubaya Luna
TTITLE1=Tango-Kokain
TTITLE2=Ditya Poroka
TTITLE3=Shelkunchik
TTITLE4=Dve Svechi
TTITLE5=Cherniy Lebed`
TTITLE6=Favorit
TTITLE7=Mechta
TTITLE8=Gluhonemaya Lubov`
TTITLE9=Malen'kiy Prinz
TTITLE10=Odinokaya Noch'
TTITLE11=Padshiy Angel
TTITLE12=Ludi,Ludi
TTITLE13=Tango
TTITLE14=Korablik
TTITLE15=Korolevstvo Lubvi
TTITLE16=Tanzi v oblakah
TTITLE17=A u nas vo dvore
EXTD=
EXTT0=
EXTT1=
EXTT2=
EXTT3=
EXTT4=
EXTT5=
EXTT6=
EXTT7=
EXTT8=
EXTT9=
EXTT10=
EXTT11=
EXTT12=
EXTT13=
EXTT14=
EXTT15=
EXTT16=
EXTT17=
PLAYORDER=
